{
	"patcher" : 	{
		"fileversion" : 1,
		"appversion" : 		{
			"major" : 9,
			"minor" : 0,
			"revision" : 2,
			"architecture" : "x64",
			"modernui" : 1
		}
,
		"classnamespace" : "dsp.gen",
		"rect" : [ 646.0, 357.0, 1029.0, 809.0 ],
		"gridsize" : [ 15.0, 15.0 ],
		"boxes" : [ 			{
				"box" : 				{
					"id" : "obj-7",
					"maxclass" : "newobj",
					"numinlets" : 0,
					"numoutlets" : 2,
					"outlettype" : [ "", "" ],
					"patching_rect" : [ 247.333340704441071, 14.0, 75.0, 22.0 ],
					"text" : "buffer mybuf"
				}

			}
, 			{
				"box" : 				{
					"id" : "obj-6",
					"maxclass" : "newobj",
					"numinlets" : 2,
					"numoutlets" : 2,
					"outlettype" : [ "", "" ],
					"patching_rect" : [ 50.000001490116119, 94.000002801418304, 71.0, 22.0 ],
					"text" : "peek mybuf"
				}

			}
, 			{
				"box" : 				{
					"id" : "obj-5",
					"maxclass" : "newobj",
					"numinlets" : 2,
					"numoutlets" : 1,
					"outlettype" : [ "" ],
					"patching_rect" : [ 50.000001490116119, 54.666668295860291, 112.999998509883881, 22.0 ],
					"text" : "accum"
				}

			}
, 			{
				"box" : 				{
					"id" : "obj-1",
					"maxclass" : "newobj",
					"numinlets" : 0,
					"numoutlets" : 1,
					"outlettype" : [ "" ],
					"patching_rect" : [ 50.0, 14.0, 53.0, 22.0 ],
					"text" : "in 1 play"
				}

			}
, 			{
				"box" : 				{
					"id" : "obj-2",
					"maxclass" : "newobj",
					"numinlets" : 0,
					"numoutlets" : 1,
					"outlettype" : [ "" ],
					"patching_rect" : [ 144.0, 14.0, 67.0, 22.0 ],
					"text" : "in 2 rewind"
				}

			}
, 			{
				"box" : 				{
					"id" : "obj-4",
					"maxclass" : "newobj",
					"numinlets" : 1,
					"numoutlets" : 0,
					"patching_rect" : [ 50.000001490116119, 133.333337306976318, 71.0, 22.0 ],
					"text" : "out 1 sound"
				}

			}
 ],
		"lines" : [ 			{
				"patchline" : 				{
					"destination" : [ "obj-5", 0 ],
					"source" : [ "obj-1", 0 ]
				}

			}
, 			{
				"patchline" : 				{
					"destination" : [ "obj-5", 1 ],
					"source" : [ "obj-2", 0 ]
				}

			}
, 			{
				"patchline" : 				{
					"destination" : [ "obj-6", 0 ],
					"source" : [ "obj-5", 0 ]
				}

			}
, 			{
				"patchline" : 				{
					"destination" : [ "obj-4", 0 ],
					"source" : [ "obj-6", 0 ]
				}

			}
 ],
		"originid" : "pat-27"
	}

}
